<svg width="25" height="25" viewBox="0 0 25 25" fill="none" xmlns="http://www.w3.org/2000/svg">
<path d="M12.5005 7.49267C9.72948 7.49267 7.49316 9.729 7.49316 12.5C7.49316 15.271 9.72948 17.5073 12.5005 17.5073C15.2715 17.5073 17.5078 15.271 17.5078 12.5C17.5078 9.729 15.2715 7.49267 12.5005 7.49267ZM12.5005 15.7544C10.7085 15.7544 9.24609 14.292 9.24609 12.5C9.24609 10.708 10.7085 9.2456 12.5005 9.2456C14.2925 9.2456 15.7549 10.708 15.7549 12.5C15.7549 14.292 14.2925 15.7544 12.5005 15.7544ZM17.7129 6.1206C17.0659 6.1206 16.5434 6.64306 16.5434 7.29003C16.5434 7.93701 17.0659 8.45947 17.7129 8.45947C18.3599 8.45947 18.8823 7.93945 18.8823 7.29003C18.8825 7.13641 18.8524 6.98425 18.7937 6.84228C18.735 6.70031 18.6489 6.57132 18.5402 6.46269C18.4316 6.35406 18.3026 6.26793 18.1606 6.20922C18.0187 6.15052 17.8665 6.12041 17.7129 6.1206V6.1206ZM22.2612 12.5C22.2612 11.1523 22.2734 9.81689 22.1977 8.47167C22.1221 6.90917 21.7656 5.52245 20.623 4.37988C19.478 3.23486 18.0937 2.88085 16.5312 2.80517C15.1836 2.72949 13.8481 2.74169 12.5029 2.74169C11.1553 2.74169 9.81982 2.72949 8.4746 2.80517C6.9121 2.88085 5.52538 3.2373 4.38281 4.37988C3.23779 5.5249 2.88378 6.90917 2.8081 8.47167C2.73242 9.81933 2.74462 11.1548 2.74462 12.5C2.74462 13.8452 2.73242 15.1831 2.8081 16.5283C2.88378 18.0908 3.24023 19.4775 4.38281 20.6201C5.52783 21.7651 6.9121 22.1191 8.4746 22.1948C9.82226 22.2705 11.1577 22.2583 12.5029 22.2583C13.8506 22.2583 15.186 22.2705 16.5312 22.1948C18.0937 22.1191 19.4805 21.7627 20.623 20.6201C21.7681 19.4751 22.1221 18.0908 22.1977 16.5283C22.2759 15.1831 22.2612 13.8476 22.2612 12.5V12.5ZM20.1128 18.2568C19.9346 18.7012 19.7197 19.0332 19.3755 19.375C19.0312 19.7192 18.7017 19.9341 18.2573 20.1123C16.9731 20.6226 13.9238 20.5078 12.5005 20.5078C11.0771 20.5078 8.02538 20.6226 6.7412 20.1147C6.29687 19.9365 5.96484 19.7217 5.62304 19.3774C5.2788 19.0332 5.06396 18.7036 4.88574 18.2593C4.37792 16.9727 4.49267 13.9233 4.49267 12.5C4.49267 11.0767 4.37792 8.0249 4.88574 6.74072C5.06396 6.29638 5.2788 5.96435 5.62304 5.62255C5.96728 5.28076 6.29687 5.06347 6.7412 4.88525C8.02538 4.37744 11.0771 4.49218 12.5005 4.49218C13.9238 4.49218 16.9756 4.37744 18.2598 4.88525C18.7041 5.06347 19.0361 5.27831 19.3779 5.62255C19.7222 5.96679 19.937 6.29638 20.1152 6.74072C20.623 8.0249 20.5083 11.0767 20.5083 12.5C20.5083 13.9233 20.623 16.9726 20.1128 18.2568Z" fill="white"/>
</svg>
