<svg width="25" height="22" viewBox="0 0 25 22" fill="none" xmlns="http://www.w3.org/2000/svg">
<g clip-path="url(#clip0)">
<path d="M24.999 2.56648C24.3029 3.67129 23.4488 4.61309 22.4367 5.39188C22.4467 5.60075 22.4517 5.83682 22.4517 6.1001C22.4517 7.56293 22.2518 9.02753 21.852 10.4939C21.4522 11.9603 20.8416 13.3639 20.02 14.7047C19.1984 16.0455 18.2197 17.2333 17.084 18.2681C15.9482 19.303 14.583 20.1281 12.9884 20.7436C11.3937 21.359 9.6846 21.6667 7.86115 21.6667C5.01534 21.6667 2.39463 20.847 -0.000976562 19.2077C0.424216 19.2582 0.832011 19.2834 1.22241 19.2834C3.59985 19.2834 5.72329 18.5021 7.59272 16.9396C6.48422 16.9179 5.49148 16.5538 4.61449 15.8474C3.7375 15.1409 3.13398 14.2382 2.80392 13.1393C3.13016 13.2056 3.45215 13.2387 3.76989 13.2387C4.22725 13.2387 4.67728 13.1751 5.11999 13.0478C3.93702 12.795 2.95564 12.1664 2.17586 11.162C1.39611 10.1575 1.00623 8.99817 1.00623 7.68395V7.61622C1.73235 8.04517 2.50686 8.27333 3.32978 8.30072C2.62899 7.80227 2.07338 7.15227 1.66293 6.35074C1.25245 5.5492 1.04721 4.6818 1.04721 3.74853C1.04721 2.76424 1.27839 1.84768 1.74075 0.998855C3.02721 2.68318 4.58603 4.02934 6.4172 5.03735C8.2484 6.04537 10.2129 6.60519 12.3108 6.71682C12.2213 6.31897 12.1765 5.90381 12.1763 5.47131C12.1763 3.9612 12.6772 2.67179 13.679 1.60307C14.6808 0.534358 15.8894 0 17.3048 0C18.7866 0 20.0348 0.575691 21.0494 1.72707C22.2085 1.48211 23.2939 1.03903 24.3054 0.397843C23.9157 1.70637 23.1647 2.7158 22.0526 3.42615C23.0748 3.29655 24.0569 3.01 24.999 2.56648H24.999Z" fill="white"/>
</g>
<defs>
<clipPath id="clip0">
<rect width="25" height="21.6667" fill="white"/>
</clipPath>
</defs>
</svg>
