<svg width="424" height="44" viewBox="0 0 424 44" fill="none" xmlns="http://www.w3.org/2000/svg">
<g filter="url(#filter0_d)">
<rect x="2" width="420" height="40" rx="10" fill="#329DBF"/>
</g>
<path d="M161.728 21.834V24.354C160.828 24.876 159.982 25.092 158.902 25.092C157.642 25.092 156.67 24.714 156.022 23.976C155.248 23.094 154.834 21.708 154.834 19.98C154.834 18.216 155.266 16.884 156.094 16.02C156.724 15.372 157.642 15.012 158.632 15.012C159.478 15.012 160.072 15.156 160.576 15.498C161.098 15.84 161.368 16.236 161.656 17.064L164.698 16.308C164.32 15.264 163.996 14.724 163.384 14.094C162.304 13.014 160.738 12.42 158.92 12.42C157.444 12.42 156.202 12.69 155.194 13.266C152.998 14.472 151.738 16.902 151.738 19.962C151.738 22.176 152.368 24.21 153.466 25.524C154.672 26.928 156.544 27.684 158.866 27.684C159.82 27.684 160.882 27.54 161.746 27.306C162.772 27.036 163.474 26.73 164.662 26.01C164.554 25.218 164.536 24.696 164.536 23.526V21.564C164.536 20.466 164.572 19.908 164.662 19.224C163.924 19.296 163.294 19.314 162.43 19.314H161.242C160.054 19.314 159.658 19.296 158.992 19.206V21.924C159.532 21.852 159.892 21.834 160.81 21.834H161.728ZM177 22.824C176.964 22.482 176.964 22.464 176.964 22.392C176.892 21.042 176.802 20.466 176.478 19.584C175.704 17.514 173.994 16.362 171.636 16.362C168.396 16.362 166.254 18.63 166.254 22.05C166.254 23.796 166.812 25.326 167.838 26.334C168.774 27.27 170.124 27.756 171.744 27.756C173.382 27.756 174.75 27.252 175.704 26.298C176.19 25.83 176.46 25.416 176.856 24.552L174.246 23.778C173.868 24.876 173.004 25.47 171.744 25.47C170.88 25.47 170.178 25.164 169.692 24.57C169.332 24.12 169.17 23.67 169.08 22.824H177ZM169.134 20.736C169.476 19.332 170.34 18.612 171.672 18.612C172.5 18.612 173.184 18.918 173.616 19.476C173.886 19.836 174.012 20.16 174.12 20.736H169.134ZM179.847 13.932C179.955 14.76 179.991 15.354 179.991 16.254V16.722H179.325C178.605 16.722 178.227 16.704 177.705 16.614V19.152C178.263 19.062 178.623 19.044 179.289 19.044H179.991V24.84C179.991 26.838 180.927 27.63 183.249 27.63C184.185 27.63 184.833 27.522 185.553 27.27L185.265 24.912C184.797 25.182 184.437 25.272 183.951 25.272C183.105 25.272 182.799 24.966 182.799 24.12V19.044H183.591C184.365 19.044 184.707 19.062 185.301 19.152V16.632C184.743 16.704 184.329 16.722 183.501 16.722H182.799V16.254C182.799 15.408 182.853 14.616 182.943 13.932H179.847ZM199.738 27.378H202.654C202.564 26.568 202.528 26.028 202.528 24.984V20.106C202.528 18.81 202.294 18.108 201.682 17.532C200.89 16.776 199.684 16.416 197.92 16.416C196.228 16.416 194.932 16.758 194.032 17.46C193.402 17.946 193.06 18.432 192.682 19.476L195.526 19.944C195.724 19.44 195.886 19.188 196.21 18.954C196.552 18.702 197.2 18.54 197.902 18.54C199.126 18.54 199.738 18.972 199.738 19.854V20.574C197.452 20.646 196.912 20.7 195.868 20.916C193.636 21.42 192.412 22.644 192.412 24.39C192.412 25.344 192.772 26.172 193.438 26.73C194.086 27.306 195.004 27.576 196.282 27.576C197.74 27.576 198.658 27.27 199.738 26.442V27.378ZM199.738 23.184C199.738 23.814 199.522 24.264 199 24.714C198.442 25.182 197.56 25.488 196.786 25.488C195.814 25.488 195.274 25.074 195.274 24.318C195.274 23.634 195.706 23.148 196.534 22.896C197.344 22.644 198.1 22.554 199.738 22.5V23.184ZM218.855 27.378C219.989 27.378 220.997 27.432 221.519 27.504V24.588C220.727 24.678 220.097 24.714 218.855 24.714H214.031V15.48C214.031 14.076 214.049 13.842 214.175 12.744H210.899C211.007 13.572 211.043 14.274 211.043 15.516V24.93C211.043 26.064 211.007 26.766 210.899 27.432C211.565 27.396 212.231 27.378 213.347 27.378H218.855ZM229.621 27.378H232.537C232.447 26.568 232.411 26.028 232.411 24.984V20.106C232.411 18.81 232.177 18.108 231.565 17.532C230.773 16.776 229.567 16.416 227.803 16.416C226.111 16.416 224.815 16.758 223.915 17.46C223.285 17.946 222.943 18.432 222.565 19.476L225.409 19.944C225.607 19.44 225.769 19.188 226.093 18.954C226.435 18.702 227.083 18.54 227.785 18.54C229.009 18.54 229.621 18.972 229.621 19.854V20.574C227.335 20.646 226.795 20.7 225.751 20.916C223.519 21.42 222.295 22.644 222.295 24.39C222.295 25.344 222.655 26.172 223.321 26.73C223.969 27.306 224.887 27.576 226.165 27.576C227.623 27.576 228.541 27.27 229.621 26.442V27.378ZM229.621 23.184C229.621 23.814 229.405 24.264 228.883 24.714C228.325 25.182 227.443 25.488 226.669 25.488C225.697 25.488 225.157 25.074 225.157 24.318C225.157 23.634 225.589 23.148 226.417 22.896C227.227 22.644 227.983 22.554 229.621 22.5V23.184ZM246.182 27.378C246.272 26.874 246.38 26.424 246.686 25.47L248.684 19.008C249.026 17.91 249.026 17.892 249.458 16.722H246.218C246.182 17.316 246.056 18.072 245.84 18.864L244.958 22.32C244.94 22.374 244.814 22.95 244.796 23.004C244.742 23.274 244.742 23.274 244.706 23.418C244.544 22.77 244.472 22.536 244.418 22.356L243.212 18.522C242.996 17.838 242.798 17.118 242.726 16.722H240.476C240.404 17.136 240.224 17.838 239.99 18.54L238.82 22.23C238.748 22.464 238.694 22.608 238.478 23.4C238.442 23.184 238.424 23.148 238.37 22.878C238.352 22.806 238.334 22.698 238.298 22.608C238.262 22.428 238.244 22.302 238.226 22.23L237.344 18.864C237.146 18.072 237.002 17.316 236.948 16.722H233.726C234.014 17.478 234.23 18.126 234.5 19.008L236.498 25.47C236.804 26.424 236.894 26.784 237.02 27.378H239.54C239.612 26.964 239.828 26.172 240.044 25.47L241.322 21.492C241.394 21.276 241.484 20.952 241.61 20.484C241.664 20.754 241.772 21.132 241.898 21.492L243.158 25.47C243.392 26.244 243.572 26.928 243.644 27.378H246.182ZM254.15 26.496L253.7 27.486C253.412 28.08 252.944 28.368 252.26 28.368C251.81 28.368 251.486 28.278 250.892 28.008L250.496 30.51C251.414 30.69 252.026 30.762 252.656 30.762C254.528 30.762 255.68 30.06 256.346 28.548L260.45 19.026C260.972 17.766 260.972 17.766 261.098 17.514C261.35 16.992 261.35 16.992 261.476 16.722H258.2C258.092 17.334 257.912 17.874 257.48 18.972L255.662 23.544L253.682 18.81C253.376 18.126 253.124 17.244 253.034 16.722H249.74C249.956 17.154 250.046 17.334 250.802 19.026L254.15 26.496ZM272.942 22.824C272.906 22.482 272.906 22.464 272.906 22.392C272.834 21.042 272.744 20.466 272.42 19.584C271.646 17.514 269.936 16.362 267.578 16.362C264.338 16.362 262.196 18.63 262.196 22.05C262.196 23.796 262.754 25.326 263.78 26.334C264.716 27.27 266.066 27.756 267.686 27.756C269.324 27.756 270.692 27.252 271.646 26.298C272.132 25.83 272.402 25.416 272.798 24.552L270.188 23.778C269.81 24.876 268.946 25.47 267.686 25.47C266.822 25.47 266.12 25.164 265.634 24.57C265.274 24.12 265.112 23.67 265.022 22.824H272.942ZM265.076 20.736C265.418 19.332 266.282 18.612 267.614 18.612C268.442 18.612 269.126 18.918 269.558 19.476C269.828 19.836 269.954 20.16 270.062 20.736H265.076ZM282.718 16.722C281.944 16.56 281.566 16.524 281.026 16.524C279.424 16.524 278.272 17.064 277.516 18.198V16.722H274.546C274.654 17.478 274.69 18.036 274.69 19.242V24.858C274.69 25.92 274.654 26.478 274.546 27.378H277.642C277.552 26.604 277.516 25.938 277.516 24.858V21.744C277.606 20.898 277.768 20.484 278.146 20.034C278.65 19.458 279.352 19.188 280.306 19.188C280.882 19.188 281.224 19.242 281.98 19.494L282.718 16.722Z" fill="white"/>
<defs>
<filter id="filter0_d" x="0" y="0" width="424" height="44" filterUnits="userSpaceOnUse" color-interpolation-filters="sRGB">
<feFlood flood-opacity="0" result="BackgroundImageFix"/>
<feColorMatrix in="SourceAlpha" type="matrix" values="0 0 0 0 0 0 0 0 0 0 0 0 0 0 0 0 0 0 127 0"/>
<feOffset dy="2"/>
<feGaussianBlur stdDeviation="1"/>
<feColorMatrix type="matrix" values="0 0 0 0 0 0 0 0 0 0 0 0 0 0 0 0 0 0 0.25 0"/>
<feBlend mode="normal" in2="BackgroundImageFix" result="effect1_dropShadow"/>
<feBlend mode="normal" in="SourceGraphic" in2="effect1_dropShadow" result="shape"/>
</filter>
</defs>
</svg>
