<svg width="324" height="70" viewBox="0 0 324 70" fill="none" xmlns="http://www.w3.org/2000/svg">
<path d="M203.034 13.9572V24.2168H199.614V13.9572H196.806V11.0608H205.842V13.9572H203.034Z" fill="white"/>
<path d="M214.847 13.9572H210.783V16.1557H214.621V19.0521H210.783V21.3204H214.847V24.2168H207.363V11.0608H214.847V13.9572Z" fill="white"/>
<path d="M221.081 17.2026L216.981 11.0608H221.203L222.982 14.4632L225.18 11.0608H229.402L225.058 17.2026L229.96 24.2168H225.791L223.157 19.9245L220.069 24.2168H215.934L221.081 17.2026Z" fill="white"/>
<path d="M238.486 19.3313L236.951 14.9517L235.416 19.3313H238.486ZM239.393 21.9311H234.509L233.724 24.2168H230.078L235.084 11.0608H238.818L243.825 24.2168H240.178L239.393 21.9311Z" fill="white"/>
<path d="M252.543 14.4283C252.171 14.1258 251.799 13.9048 251.427 13.7652C251.054 13.614 250.694 13.5384 250.345 13.5384C249.903 13.5384 249.542 13.6431 249.263 13.8525C248.984 14.0619 248.845 14.3352 248.845 14.6726C248.845 14.9052 248.914 15.0971 249.054 15.2484C249.193 15.3996 249.374 15.5333 249.595 15.6497C249.827 15.7544 250.083 15.8474 250.362 15.9288C250.653 16.0103 250.938 16.0975 251.217 16.1906C252.334 16.5628 253.148 17.063 253.66 17.6911C254.183 18.3076 254.445 19.1161 254.445 20.1164C254.445 20.7911 254.328 21.4018 254.096 21.9485C253.875 22.4952 253.543 22.9663 253.101 23.3618C252.671 23.7457 252.136 24.0423 251.496 24.2517C250.868 24.4727 250.153 24.5832 249.351 24.5832C247.687 24.5832 246.146 24.0889 244.727 23.1001L246.193 20.3433C246.705 20.7969 247.211 21.1343 247.711 21.3553C248.211 21.5763 248.705 21.6868 249.193 21.6868C249.752 21.6868 250.165 21.5588 250.432 21.3029C250.711 21.047 250.851 20.7562 250.851 20.4305C250.851 20.2328 250.816 20.0641 250.746 19.9245C250.676 19.7733 250.56 19.6395 250.397 19.5232C250.234 19.3952 250.019 19.2789 249.752 19.1742C249.496 19.0695 249.182 18.9532 248.81 18.8253C248.368 18.6857 247.932 18.5345 247.501 18.3716C247.083 18.1971 246.705 17.9703 246.367 17.6911C246.042 17.412 245.774 17.063 245.565 16.6442C245.367 16.2138 245.268 15.6729 245.268 15.0215C245.268 14.3701 245.373 13.7827 245.582 13.2592C245.803 12.7242 246.106 12.2705 246.489 11.8983C246.885 11.5144 247.362 11.2178 247.92 11.0084C248.49 10.799 249.124 10.6943 249.822 10.6943C250.473 10.6943 251.153 10.7874 251.863 10.9735C252.572 11.148 253.252 11.4097 253.904 11.7587L252.543 14.4283Z" fill="white"/>
<path d="M203.821 31.8497H199.989V33.9383H203.48V36.6899H199.989V41.5963H196.806V29.0981H203.821V31.8497Z" fill="white"/>
<path d="M211.87 36.9551L210.44 32.7945L209.011 36.9551H211.87ZM212.714 39.4249H208.167L207.436 41.5963H204.042L208.703 29.0981H212.178L216.839 41.5963H213.445L212.714 39.4249Z" fill="white"/>
<path d="M221.415 29.0981V41.5963H218.232V29.0981H221.415Z" fill="white"/>
<path d="M227.156 34.6842H227.757C228.385 34.6842 228.867 34.5516 229.202 34.2864C229.538 34.0211 229.706 33.6399 229.706 33.1426C229.706 32.6453 229.538 32.2641 229.202 31.9989C228.867 31.7337 228.385 31.6011 227.757 31.6011H227.156V34.6842ZM234.155 41.5963H230.193L227.156 36.7893V41.5963H223.973V29.0981H228.926C229.608 29.0981 230.204 29.2031 230.712 29.413C231.221 29.6119 231.638 29.8882 231.963 30.2418C232.299 30.5955 232.548 31.0043 232.71 31.4685C232.883 31.9326 232.97 32.4299 232.97 32.9603C232.97 33.9106 232.743 34.6842 232.288 35.2809C231.844 35.8666 231.183 36.2644 230.306 36.4744L234.155 41.5963Z" fill="white"/>
<path d="M244.189 38.8447H244.92C245.472 38.8447 245.965 38.7563 246.398 38.5795C246.831 38.4027 247.193 38.1596 247.486 37.8502C247.789 37.5408 248.016 37.1761 248.168 36.7562C248.33 36.3252 248.411 35.8556 248.411 35.3472C248.411 34.8499 248.33 34.3858 248.168 33.9548C248.005 33.5239 247.773 33.1537 247.469 32.8443C247.177 32.5348 246.814 32.2917 246.381 32.1149C245.948 31.9381 245.461 31.8497 244.92 31.8497H244.189V38.8447ZM241.006 29.0981H245.716C246.549 29.0981 247.329 29.2694 248.054 29.6119C248.79 29.9545 249.429 30.4131 249.97 30.9878C250.523 31.5513 250.956 32.2144 251.27 32.9769C251.584 33.7283 251.741 34.5184 251.741 35.3472C251.741 36.165 251.584 36.9551 251.27 37.7176C250.966 38.469 250.539 39.1321 249.987 39.7067C249.445 40.2813 248.807 40.7399 248.07 41.0825C247.345 41.4251 246.56 41.5963 245.716 41.5963H241.006V29.0981Z" fill="white"/>
<path d="M260.74 31.8497H256.956V33.9383H260.529V36.6899H256.956V38.8447H260.74V41.5963H253.773V29.0981H260.74V31.8497Z" fill="white"/>
<path d="M270.05 31.8497H266.218V33.9383H269.709V36.6899H266.218V41.5963H263.035V29.0981H270.05V31.8497Z" fill="white"/>
<path d="M278.915 31.8497H275.131V33.9383H278.703V36.6899H275.131V38.8447H278.915V41.5963H271.948V29.0981H278.915V31.8497Z" fill="white"/>
<path d="M281.21 41.5963V29.0981H284.393L290.271 36.7396V29.0981H293.438V41.5963H290.271L284.393 33.9548V41.5963H281.21Z" fill="white"/>
<path d="M302.73 32.2973C302.383 32.0099 302.037 31.8 301.69 31.6674C301.344 31.5237 301.008 31.4519 300.684 31.4519C300.272 31.4519 299.936 31.5513 299.677 31.7502C299.417 31.9492 299.287 32.2088 299.287 32.5293C299.287 32.7503 299.352 32.9327 299.482 33.0763C299.612 33.22 299.78 33.3471 299.985 33.4576C300.202 33.557 300.44 33.6454 300.7 33.7228C300.97 33.8001 301.236 33.883 301.496 33.9714C302.535 34.325 303.293 34.8002 303.769 35.397C304.256 35.9826 304.5 36.7507 304.5 37.701C304.5 38.3419 304.392 38.9221 304.175 39.4415C303.969 39.9609 303.661 40.4084 303.249 40.7841C302.849 41.1488 302.351 41.4306 301.755 41.6295C301.171 41.8395 300.505 41.9444 299.758 41.9444C298.21 41.9444 296.775 41.4748 295.454 40.5355L296.818 37.9165C297.295 38.3475 297.766 38.6679 298.231 38.8779C298.697 39.0879 299.157 39.1928 299.612 39.1928C300.131 39.1928 300.516 39.0713 300.765 38.8282C301.025 38.5851 301.154 38.3088 301.154 37.9994C301.154 37.8115 301.122 37.6513 301.057 37.5187C300.992 37.375 300.884 37.2479 300.732 37.1374C300.581 37.0159 300.38 36.9054 300.131 36.8059C299.893 36.7064 299.601 36.5959 299.254 36.4744C298.843 36.3418 298.437 36.1981 298.036 36.0434C297.647 35.8777 297.295 35.6622 296.981 35.397C296.678 35.1317 296.429 34.8002 296.234 34.4024C296.05 33.9935 295.958 33.4797 295.958 32.8608C295.958 32.242 296.055 31.6839 296.25 31.1867C296.456 30.6783 296.737 30.2474 297.094 29.8937C297.463 29.5291 297.906 29.2473 298.426 29.0484C298.957 28.8495 299.547 28.75 300.196 28.75C300.803 28.75 301.436 28.8384 302.096 29.0152C302.757 29.181 303.39 29.4296 303.997 29.7611L302.73 32.2973Z" fill="white"/>
<path d="M313.472 31.8497H309.688V33.9383H313.261V36.6899H309.688V38.8447H313.472V41.5963H306.505V29.0981H313.472V31.8497Z" fill="white"/>
<path d="M200.244 52.5146H201.385C202.648 52.5146 203.279 51.9679 203.279 50.8745C203.279 49.7811 202.648 49.2343 201.385 49.2343H200.244V52.5146ZM200.244 59.6336H196.806V46.4775H202.279C203.765 46.4775 204.899 46.8614 205.683 47.6291C206.478 48.3968 206.876 49.4786 206.876 50.8745C206.876 52.2704 206.478 53.3522 205.683 54.1199C204.899 54.8876 203.765 55.2715 202.279 55.2715H200.244V59.6336Z" fill="white"/>
<path d="M212.135 52.3576H212.784C213.462 52.3576 213.983 52.218 214.345 51.9388C214.708 51.6597 214.889 51.2583 214.889 50.7349C214.889 50.2114 214.708 49.8101 214.345 49.531C213.983 49.2518 213.462 49.1122 212.784 49.1122H212.135V52.3576ZM219.696 59.6336H215.415L212.135 54.5735V59.6336H208.696V46.4775H214.047C214.784 46.4775 215.427 46.588 215.977 46.809C216.526 47.0184 216.977 47.3092 217.328 47.6814C217.69 48.0537 217.959 48.4841 218.135 48.9726C218.322 49.4612 218.415 49.9846 218.415 50.543C218.415 51.5433 218.17 52.3576 217.679 52.9857C217.199 53.6022 216.486 54.021 215.538 54.242L219.696 59.6336Z" fill="white"/>
<path d="M223.895 53.0555C223.895 53.579 223.994 54.0617 224.193 54.5037C224.392 54.9458 224.661 55.3296 225 55.6553C225.339 55.981 225.731 56.2369 226.175 56.4231C226.632 56.5975 227.111 56.6848 227.614 56.6848C228.117 56.6848 228.591 56.5975 229.035 56.4231C229.491 56.2369 229.889 55.981 230.228 55.6553C230.579 55.3296 230.854 54.9458 231.053 54.5037C231.251 54.0617 231.351 53.579 231.351 53.0555C231.351 52.5321 231.251 52.0493 231.053 51.6073C230.854 51.1653 230.579 50.7814 230.228 50.4557C229.889 50.13 229.491 49.8799 229.035 49.7054C228.591 49.5193 228.117 49.4263 227.614 49.4263C227.111 49.4263 226.632 49.5193 226.175 49.7054C225.731 49.8799 225.339 50.13 225 50.4557C224.661 50.7814 224.392 51.1653 224.193 51.6073C223.994 52.0493 223.895 52.5321 223.895 53.0555ZM220.298 53.0555C220.298 52.0784 220.479 51.1711 220.842 50.3336C221.205 49.4844 221.707 48.7458 222.351 48.1176C222.994 47.4895 223.76 47.0009 224.649 46.652C225.55 46.2914 226.538 46.1111 227.614 46.1111C228.678 46.1111 229.661 46.2914 230.561 46.652C231.462 47.0009 232.234 47.4895 232.877 48.1176C233.532 48.7458 234.041 49.4844 234.404 50.3336C234.766 51.1711 234.947 52.0784 234.947 53.0555C234.947 54.0326 234.766 54.9458 234.404 55.7949C234.041 56.6324 233.532 57.3653 232.877 57.9934C232.234 58.6216 231.462 59.1159 230.561 59.4765C229.661 59.8255 228.678 60 227.614 60C226.538 60 225.55 59.8255 224.649 59.4765C223.76 59.1159 222.994 58.6216 222.351 57.9934C221.707 57.3653 221.205 56.6324 220.842 55.7949C220.479 54.9458 220.298 54.0326 220.298 53.0555Z" fill="white"/>
<path d="M243.628 46.4775V55.603C243.628 55.9869 243.605 56.3416 243.558 56.6673C243.523 56.993 243.459 57.2722 243.365 57.5049C243.213 57.8771 243.003 58.2202 242.734 58.5343C242.476 58.8368 242.172 59.0985 241.821 59.3195C241.47 59.5289 241.079 59.6917 240.646 59.808C240.225 59.936 239.78 60 239.312 60C237.897 60 236.745 59.3544 235.856 58.0632L238.102 55.7775C238.16 56.173 238.289 56.487 238.488 56.7197C238.687 56.9523 238.932 57.0686 239.225 57.0686C239.868 57.0686 240.19 56.5626 240.19 55.5506V46.4775H243.628Z" fill="white"/>
<path d="M253.949 49.3739H249.861V51.5724H253.721V54.4688H249.861V56.7371H253.949V59.6336H246.423V46.4775H253.949V49.3739Z" fill="white"/>
<path d="M265.955 50.8745C265.159 49.909 264.177 49.4263 263.007 49.4263C262.493 49.4263 262.013 49.5193 261.569 49.7054C261.136 49.8916 260.762 50.1475 260.446 50.4732C260.13 50.7872 259.879 51.1653 259.692 51.6073C259.516 52.0493 259.428 52.5263 259.428 53.0381C259.428 53.5615 259.516 54.0443 259.692 54.4863C259.879 54.9283 260.13 55.3122 260.446 55.6379C260.773 55.9636 261.154 56.2195 261.586 56.4056C262.019 56.5917 262.487 56.6848 262.99 56.6848C264.089 56.6848 265.078 56.2195 265.955 55.2889V59.3369L265.604 59.4591C265.078 59.6452 264.586 59.779 264.13 59.8604C263.674 59.9534 263.224 60 262.779 60C261.867 60 260.99 59.8313 260.148 59.494C259.317 59.145 258.58 58.6623 257.937 58.0458C257.306 57.4176 256.797 56.679 256.411 55.8298C256.025 54.969 255.832 54.0326 255.832 53.0206C255.832 52.0086 256.019 51.0839 256.393 50.2463C256.779 49.3972 257.288 48.6702 257.92 48.0653C258.563 47.4488 259.306 46.9719 260.148 46.6345C260.99 46.2856 261.873 46.1111 262.797 46.1111C263.323 46.1111 263.838 46.1692 264.341 46.2856C264.855 46.3903 265.393 46.5589 265.955 46.7916V50.8745Z" fill="white"/>
<path d="M273.148 49.3739V59.6336H269.709V49.3739H266.884V46.4775H275.972V49.3739H273.148Z" fill="white"/>
<path d="M37.4306 34.1757C37.4306 38.4903 40.9285 41.9882 45.2431 41.9882C49.5577 41.9882 53.0556 38.4896 53.0556 34.1757H51.8924L46.8195 21.2611C47.1382 21.0204 47.3968 20.7092 47.5751 20.3519C47.7534 19.9946 47.8466 19.6008 47.8472 19.2014C47.8472 17.7639 46.6806 16.5972 45.2431 16.5972C44.8625 16.5972 44.5042 16.6834 44.1785 16.8292C43.647 16.6224 43.1172 16.4115 42.5889 16.1966C40.5972 15.3799 38.2799 14.4396 35.8667 13.8979C35.5842 13.1602 35.0847 12.5255 34.434 12.0776C33.7834 11.6296 33.0122 11.3895 32.2222 11.3889C31.4322 11.3896 30.661 11.6298 30.0103 12.0778C29.3596 12.5259 28.8602 13.1608 28.5778 13.8986C26.1639 14.4396 23.8466 15.3799 21.8549 16.1972C21.4014 16.3834 20.7632 16.6347 20.2653 16.8299C19.9312 16.6776 19.5685 16.5983 19.2014 16.5972C18.5107 16.5972 17.8484 16.8716 17.36 17.36C16.8716 17.8484 16.5972 18.5107 16.5972 19.2014C16.5981 19.6007 16.6913 19.9943 16.8695 20.3516C17.0476 20.7089 17.306 21.0202 17.6243 21.2611L12.5514 34.1757H11.3889C11.3889 38.4903 14.8868 41.9882 19.2014 41.9882C23.516 41.9882 27.0139 38.4903 27.0139 34.1757H25.8507L20.7778 21.2618C21.0963 21.0208 21.3548 20.7094 21.5331 20.352C21.7114 19.9946 21.8046 19.6008 21.8056 19.2014C21.8056 19.141 21.791 19.0841 21.7875 19.0243L22.4368 18.7611C24.2639 18.0104 26.3799 17.1472 28.5514 16.6202C28.7478 17.1634 29.0622 17.6563 29.4719 18.0635C29.8816 18.4707 30.3764 18.782 30.9209 18.975V22.9556H30.1222V35.4778H29.2542V41.6091C24.9466 42.4084 21.8056 44.8972 21.8056 47.8472H20.5035V50.4514H17.8993V53.0556H46.5452V50.4514H43.941V47.8472H42.6389C42.6389 44.8972 39.4966 42.4084 35.191 41.6091V35.4778H34.3229V22.9549H33.5243V18.9743C34.0686 18.7812 34.5633 18.4698 34.9729 18.0626C35.3825 17.6555 35.6967 17.1626 35.8931 16.6195C38.0653 17.1466 40.1799 18.0097 42.0084 18.7604C42.2306 18.8521 42.4403 18.9361 42.657 19.0243C42.6528 19.0841 42.6389 19.141 42.6389 19.2014C42.6398 19.6007 42.733 19.9943 42.9111 20.3516C43.0893 20.7089 43.3476 21.0202 43.666 21.2611L38.5931 34.175H37.4306V34.1757ZM19.2014 17.8993C19.375 17.8954 19.5476 17.9261 19.7091 17.9898C19.8706 18.0535 20.0178 18.1489 20.1419 18.2702C20.266 18.3916 20.3647 18.5366 20.432 18.6966C20.4993 18.8566 20.534 19.0285 20.5339 19.2021C20.5339 19.3757 20.4991 19.5476 20.4317 19.7076C20.3643 19.8676 20.2656 20.0125 20.1414 20.1338C20.0172 20.2551 19.87 20.3504 19.7085 20.414C19.5469 20.4776 19.3743 20.5082 19.2007 20.5042C18.8605 20.4962 18.5369 20.3555 18.2991 20.112C18.0613 19.8686 17.9283 19.5417 17.9284 19.2014C17.9285 18.8611 18.0617 18.5343 18.2996 18.291C18.5375 18.0477 18.8612 17.9071 19.2014 17.8993ZM24.5063 34.1757H13.8945L18.7709 21.7625C18.9118 21.7861 19.0542 21.8056 19.2014 21.8056C19.3486 21.8056 19.4903 21.7861 19.6306 21.7618L24.5063 34.1757ZM45.2431 17.8993C45.4166 17.8954 45.5893 17.9261 45.7508 17.9898C45.9123 18.0535 46.0594 18.1489 46.1836 18.2702C46.3077 18.3916 46.4063 18.5366 46.4737 18.6966C46.541 18.8566 46.5756 19.0285 46.5756 19.2021C46.5755 19.3757 46.5408 19.5476 46.4734 19.7076C46.406 19.8676 46.3073 20.0125 46.1831 20.1338C46.0589 20.2551 45.9117 20.3504 45.7501 20.414C45.5886 20.4776 45.416 20.5082 45.2424 20.5042C44.9022 20.4962 44.5786 20.3555 44.3408 20.112C44.103 19.8686 43.9699 19.5417 43.97 19.2014C43.9701 18.8611 44.1034 18.5343 44.3413 18.291C44.5792 18.0477 44.9029 17.9071 45.2431 17.8993ZM44.8132 21.7625C44.955 21.7889 45.0988 21.8033 45.2431 21.8056C45.3896 21.8056 45.532 21.7861 45.6722 21.7618L50.5479 34.175H39.9354L44.8132 21.7625Z" fill="white"/>
<path d="M10 59.9999C10 57.6987 11.8655 55.8333 14.1667 55.8333H188.472C190.773 55.8333 192.639 57.6987 192.639 59.9999H10Z" fill="white"/>
<path d="M73.3333 20.3887V53.0554H62.4444V20.3887H53.5V11.1665H82.2778V20.3887H73.3333Z" fill="white"/>
<path d="M111.121 20.3887H98.01V27.3887H109.954V36.6109H98.01V53.0554H87.1211V11.1665H111.121V20.3887Z" fill="white"/>
<path d="M128.5 43.8332H131C132.889 43.8332 134.575 43.5369 136.056 42.9443C137.537 42.3517 138.778 41.5369 139.778 40.4998C140.815 39.4628 141.593 38.2406 142.112 36.8332C142.667 35.3887 142.945 33.8147 142.945 32.1109C142.945 30.4443 142.667 28.8887 142.112 27.4443C141.556 25.9998 140.76 24.7591 139.723 23.7221C138.723 22.685 137.482 21.8702 136 21.2776C134.519 20.685 132.852 20.3887 131 20.3887H128.5V43.8332ZM117.612 11.1665H133.723C136.575 11.1665 139.241 11.7406 141.723 12.8887C144.241 14.0369 146.426 15.5739 148.278 17.4998C150.167 19.3887 151.649 21.6109 152.723 24.1665C153.797 26.685 154.334 29.3332 154.334 32.1109C154.334 34.8517 153.797 37.4998 152.723 40.0554C151.686 42.5739 150.223 44.7961 148.334 46.7221C146.482 48.648 144.297 50.185 141.778 51.3332C139.297 52.4813 136.612 53.0554 133.723 53.0554H117.612V11.1665Z" fill="white"/>
<path d="M172.174 30.3887H175.786C179.786 30.3887 181.786 28.648 181.786 25.1665C181.786 21.685 179.786 19.9443 175.786 19.9443H172.174V30.3887ZM172.174 53.0554H161.286V11.1665H178.619C183.323 11.1665 186.915 12.3887 189.397 14.8332C191.915 17.2776 193.174 20.7221 193.174 25.1665C193.174 29.6109 191.915 33.0554 189.397 35.4998C186.915 37.9443 183.323 39.1665 178.619 39.1665H172.174V53.0554Z" fill="white"/>
<path d="M111.136 20.5622H97.9962V27.5251H109.967V36.6984H97.9962V53.0556H87.0833V11.3889H111.136V20.5622Z" fill="white"/>
<path d="M128.554 43.8823H131.06C132.953 43.8823 134.641 43.5876 136.126 42.9981C137.611 42.4087 138.854 41.5982 139.857 40.5666C140.896 39.5351 141.675 38.3194 142.195 36.9194C142.752 35.4826 143.03 33.9169 143.03 32.2222C143.03 30.5644 142.752 29.0171 142.195 27.5803C141.638 26.1436 140.84 24.9094 139.801 23.8779C138.799 22.8463 137.555 22.0358 136.071 21.4464C134.586 20.8569 132.915 20.5622 131.06 20.5622H128.554V43.8823ZM117.641 11.3889H133.788C136.646 11.3889 139.318 11.9599 141.805 13.102C144.329 14.2441 146.52 15.7729 148.375 17.6886C150.269 19.5675 151.753 21.778 152.83 24.3199C153.906 26.8251 154.444 29.4592 154.444 32.2222C154.444 34.9485 153.906 37.5826 152.83 40.1245C151.79 42.6297 150.324 44.8401 148.431 46.7559C146.575 48.6716 144.385 50.2004 141.861 51.3425C139.374 52.4846 136.683 53.0556 133.788 53.0556H117.641V11.3889Z" fill="white"/>
</svg>
