<svg width="424" height="44" viewBox="0 0 424 44" fill="none" xmlns="http://www.w3.org/2000/svg">
<g filter="url(#filter0_d)">
<rect x="2" width="420" height="40" rx="10" fill="url(#paint0_linear)"/>
</g>
<path d="M160.71 22.086V24.138C159.828 24.588 159.054 24.786 158.1 24.786C156.966 24.786 156.084 24.444 155.508 23.814C154.788 23.022 154.41 21.726 154.41 20.052C154.41 17.028 155.67 15.354 157.974 15.354C158.73 15.354 159.324 15.534 159.792 15.912C160.188 16.218 160.404 16.56 160.602 17.208L164.274 16.362C163.986 15.498 163.698 14.958 163.212 14.4C162.024 12.96 160.314 12.258 158.064 12.258C153.528 12.258 150.666 15.264 150.666 19.998C150.666 22.464 151.422 24.606 152.79 25.974C154.068 27.27 155.85 27.9 158.136 27.9C159.468 27.9 160.782 27.684 161.952 27.288C162.762 27.018 163.248 26.784 164.238 26.154C164.13 25.326 164.112 24.75 164.112 23.472V21.456C164.112 20.286 164.148 19.692 164.238 19.008C163.446 19.08 162.78 19.098 161.862 19.098H160.422C159.162 19.098 158.73 19.08 158.064 18.99V22.176C158.622 22.104 158.928 22.086 159.846 22.086H160.71ZM177.033 23.076C177.015 22.896 177.015 22.788 177.015 22.716C176.961 21.69 176.889 20.934 176.745 20.358C176.115 17.676 174.153 16.146 171.345 16.146C167.907 16.146 165.621 18.504 165.621 22.068C165.621 23.85 166.197 25.38 167.259 26.46C168.285 27.486 169.671 27.99 171.435 27.99C173.217 27.99 174.657 27.468 175.683 26.46C176.187 25.956 176.457 25.542 176.871 24.606L173.739 23.724C173.595 24.192 173.469 24.39 173.199 24.642C172.731 25.074 172.101 25.308 171.381 25.308C169.959 25.308 169.113 24.534 168.933 23.076H177.033ZM168.987 20.592C169.293 19.404 170.067 18.828 171.345 18.828C172.587 18.828 173.361 19.44 173.613 20.592H168.987ZM179.903 16.578H179.255C178.625 16.578 178.175 16.542 177.653 16.47V19.476C178.175 19.404 178.643 19.368 179.219 19.368H179.903V24.876C179.903 26.1 180.155 26.712 180.839 27.234C181.415 27.666 182.261 27.864 183.485 27.864C184.457 27.864 185.159 27.756 185.969 27.504L185.699 24.768C185.249 25.002 184.907 25.092 184.439 25.092C184.097 25.092 183.809 25.02 183.611 24.894C183.377 24.732 183.287 24.48 183.287 23.976V19.368H184.043C184.691 19.368 185.159 19.404 185.699 19.476V16.488C185.141 16.56 184.727 16.578 183.935 16.578H183.287V16.2C183.287 15.336 183.341 14.472 183.431 13.734H179.759C179.867 14.58 179.903 15.3 179.903 16.2V16.578ZM200.307 20.448C199.011 20.484 198.471 20.502 197.769 20.574C196.149 20.718 194.943 21.096 194.025 21.744C193.161 22.338 192.711 23.238 192.711 24.372C192.711 25.362 193.053 26.226 193.701 26.82C194.421 27.486 195.447 27.81 196.815 27.81C198.291 27.81 199.299 27.504 200.307 26.73V27.558H203.799C203.709 26.748 203.673 26.1 203.673 25.002V20.142C203.673 18.522 203.169 17.532 202.017 16.902C201.315 16.524 200.019 16.272 198.687 16.272C196.941 16.272 195.609 16.614 194.637 17.298C193.881 17.838 193.485 18.414 193.125 19.476L196.563 20.034C196.833 19.152 197.445 18.774 198.597 18.774C199.785 18.774 200.307 19.17 200.307 20.034V20.448ZM200.307 23.256C200.307 23.796 200.073 24.282 199.659 24.642C199.173 25.056 198.363 25.326 197.625 25.326C196.689 25.326 196.149 24.948 196.149 24.3C196.149 23.778 196.545 23.328 197.193 23.112C197.931 22.878 198.705 22.788 200.307 22.752V23.256ZM220.002 27.558C221.442 27.558 222.324 27.594 222.99 27.684V24.228C222.144 24.336 221.532 24.354 220.002 24.354H215.646V15.426C215.646 14.022 215.664 13.518 215.79 12.582H211.866C211.974 13.446 212.01 14.22 212.01 15.48V24.984C212.01 26.19 211.974 26.982 211.866 27.612C212.55 27.576 213.288 27.558 214.53 27.558H220.002ZM231.262 20.448C229.966 20.484 229.426 20.502 228.724 20.574C227.104 20.718 225.898 21.096 224.98 21.744C224.116 22.338 223.666 23.238 223.666 24.372C223.666 25.362 224.008 26.226 224.656 26.82C225.376 27.486 226.402 27.81 227.77 27.81C229.246 27.81 230.254 27.504 231.262 26.73V27.558H234.754C234.664 26.748 234.628 26.1 234.628 25.002V20.142C234.628 18.522 234.124 17.532 232.972 16.902C232.27 16.524 230.974 16.272 229.642 16.272C227.896 16.272 226.564 16.614 225.592 17.298C224.836 17.838 224.44 18.414 224.08 19.476L227.518 20.034C227.788 19.152 228.4 18.774 229.552 18.774C230.74 18.774 231.262 19.17 231.262 20.034V20.448ZM231.262 23.256C231.262 23.796 231.028 24.282 230.614 24.642C230.128 25.056 229.318 25.326 228.58 25.326C227.644 25.326 227.104 24.948 227.104 24.3C227.104 23.778 227.5 23.328 228.148 23.112C228.886 22.878 229.66 22.788 231.262 22.752V23.256ZM249.049 27.558C249.157 26.946 249.265 26.496 249.589 25.452L251.605 18.918C251.875 18.072 252.145 17.262 252.415 16.578H248.545C248.509 17.154 248.383 17.91 248.167 18.846L247.411 22.032C247.303 22.518 247.303 22.518 247.249 22.788C247.177 22.572 247.069 22.176 247.033 22.05L245.989 18.648C245.719 17.802 245.503 16.938 245.449 16.578H242.821C242.749 16.956 242.749 16.956 242.263 18.648L241.255 21.924C241.219 22.086 241.219 22.086 241.003 22.788C240.985 22.644 240.913 22.356 240.823 21.924L240.049 18.702C239.851 17.856 239.743 17.208 239.707 16.578H235.837C236.179 17.496 236.449 18.288 236.647 18.918L238.663 25.452C238.951 26.424 239.077 26.91 239.203 27.558H242.263C242.335 27.126 242.569 26.244 242.821 25.452L243.919 21.852C244.009 21.6 244.009 21.564 244.135 21.15C244.171 21.312 244.243 21.546 244.333 21.852L245.431 25.452C245.755 26.496 245.899 27.036 245.989 27.558H249.049ZM257.088 26.586L256.71 27.36C256.44 27.9 255.936 28.206 255.252 28.206C254.784 28.206 254.442 28.116 253.848 27.81L253.452 30.672C254.442 30.888 255.126 30.978 255.918 30.978C257.97 30.978 259.266 30.204 259.986 28.512L264.108 18.99C264.738 17.514 264.738 17.514 265.188 16.578H261.282C261.174 17.208 261.012 17.73 260.508 18.972L258.906 23.058L257.25 18.9C256.872 17.928 256.638 17.154 256.548 16.578H252.642C252.876 17.028 252.948 17.19 253.722 18.99L257.088 26.586ZM277.193 23.076C277.175 22.896 277.175 22.788 277.175 22.716C277.121 21.69 277.049 20.934 276.905 20.358C276.275 17.676 274.313 16.146 271.505 16.146C268.067 16.146 265.781 18.504 265.781 22.068C265.781 23.85 266.357 25.38 267.419 26.46C268.445 27.486 269.831 27.99 271.595 27.99C273.377 27.99 274.817 27.468 275.843 26.46C276.347 25.956 276.617 25.542 277.031 24.606L273.899 23.724C273.755 24.192 273.629 24.39 273.359 24.642C272.891 25.074 272.261 25.308 271.541 25.308C270.119 25.308 269.273 24.534 269.093 23.076H277.193ZM269.147 20.592C269.453 19.404 270.227 18.828 271.505 18.828C272.747 18.828 273.521 19.44 273.773 20.592H269.147ZM287.605 16.578C286.76 16.398 286.4 16.362 285.824 16.362C284.186 16.362 283.106 16.848 282.224 18V16.578H278.642C278.75 17.352 278.786 17.982 278.786 19.296V24.84C278.786 26.01 278.75 26.658 278.642 27.558H282.368C282.26 26.694 282.224 26.01 282.224 24.858V22.05C282.296 21.258 282.422 20.88 282.764 20.448C283.286 19.8 283.988 19.476 284.906 19.476C285.464 19.476 285.914 19.566 286.742 19.818L287.605 16.578Z" fill="white"/>
<defs>
<filter id="filter0_d" x="0" y="0" width="424" height="44" filterUnits="userSpaceOnUse" color-interpolation-filters="sRGB">
<feFlood flood-opacity="0" result="BackgroundImageFix"/>
<feColorMatrix in="SourceAlpha" type="matrix" values="0 0 0 0 0 0 0 0 0 0 0 0 0 0 0 0 0 0 127 0"/>
<feOffset dy="2"/>
<feGaussianBlur stdDeviation="1"/>
<feColorMatrix type="matrix" values="0 0 0 0 0 0 0 0 0 0 0 0 0 0 0 0 0 0 0.25 0"/>
<feBlend mode="normal" in2="BackgroundImageFix" result="effect1_dropShadow"/>
<feBlend mode="normal" in="SourceGraphic" in2="effect1_dropShadow" result="shape"/>
</filter>
<linearGradient id="paint0_linear" x1="212" y1="0" x2="212" y2="40" gradientUnits="userSpaceOnUse">
<stop stop-color="#2F80ED"/>
<stop offset="0.817708" stop-color="#329DBF"/>
</linearGradient>
</defs>
</svg>
